<?xml version="1.0" encoding="UTF-8" standalone="no"?>
<!DOCTYPE svg PUBLIC "-//W3C//DTD SVG 1.1//EN"
 "http://www.w3.org/Graphics/SVG/1.1/DTD/svg11.dtd">
<!-- Generated by graphviz version 12.1.2 (20240928.0832)
 -->
<!-- Title: anb Pages: 1 -->
<svg width="357pt" height="188pt"
 viewBox="0.00 0.00 357.02 188.00" xmlns="http://www.w3.org/2000/svg" xmlns:xlink="http://www.w3.org/1999/xlink">
<g id="graph0" class="graph" transform="scale(1 1) rotate(0) translate(4 184)">
<title>anb</title>
<polygon fill="white" stroke="none" points="-4,4 -4,-184 353.02,-184 353.02,4 -4,4"/>
<!-- Paula -->
<g id="node1" class="node">
<title>Paula</title>
<ellipse fill="none" stroke="black" cx="39.58" cy="-90" rx="31.39" ry="18"/>
<text text-anchor="middle" x="39.58" y="-84.95" font-family="Times New Roman,serif" font-size="14.00">Paula</text>
</g>
<!-- Martim -->
<g id="node2" class="node">
<title>Martim</title>
<ellipse fill="none" stroke="black" cx="39.58" cy="-18" rx="39.58" ry="18"/>
<text text-anchor="middle" x="39.58" y="-12.95" font-family="Times New Roman,serif" font-size="14.00">Martim</text>
</g>
<!-- Paula&#45;&gt;Martim -->
<g id="edge1" class="edge">
<title>Paula&#45;&gt;Martim</title>
<path fill="none" stroke="black" d="M39.58,-71.7C39.58,-64.41 39.58,-55.73 39.58,-47.54"/>
<polygon fill="black" stroke="black" points="43.08,-47.62 39.58,-37.62 36.08,-47.62 43.08,-47.62"/>
</g>
<!-- Carlos -->
<g id="node3" class="node">
<title>Carlos</title>
<ellipse fill="none" stroke="black" cx="148.58" cy="-90" rx="34.97" ry="18"/>
<text text-anchor="middle" x="148.58" y="-84.95" font-family="Times New Roman,serif" font-size="14.00">Carlos</text>
</g>
<!-- Carlos&#45;&gt;Martim -->
<g id="edge2" class="edge">
<title>Carlos&#45;&gt;Martim</title>
<path fill="none" stroke="black" d="M127.3,-75.34C111.41,-65.13 89.43,-51.01 71.44,-39.46"/>
<polygon fill="black" stroke="black" points="73.5,-36.63 63.2,-34.17 69.72,-42.52 73.5,-36.63"/>
</g>
<!-- Maria da Piedade -->
<g id="node5" class="node">
<title>Maria da Piedade</title>
<ellipse fill="none" stroke="black" cx="173.58" cy="-18" rx="76.43" ry="18"/>
<text text-anchor="middle" x="173.58" y="-12.95" font-family="Times New Roman,serif" font-size="14.00">Maria da Piedade</text>
</g>
<!-- Carlos&#45;&gt;Maria da Piedade -->
<g id="edge4" class="edge">
<title>Carlos&#45;&gt;Maria da Piedade</title>
<path fill="none" stroke="black" d="M154.63,-72.05C157.32,-64.52 160.57,-55.44 163.6,-46.94"/>
<polygon fill="black" stroke="black" points="166.83,-48.3 166.9,-37.7 160.24,-45.94 166.83,-48.3"/>
</g>
<!-- Cantiflas -->
<g id="node4" class="node">
<title>Cantiflas</title>
<ellipse fill="none" stroke="black" cx="148.58" cy="-162" rx="44.19" ry="18"/>
<text text-anchor="middle" x="148.58" y="-156.95" font-family="Times New Roman,serif" font-size="14.00">Cantiflas</text>
</g>
<!-- Cantiflas&#45;&gt;Carlos -->
<g id="edge3" class="edge">
<title>Cantiflas&#45;&gt;Carlos</title>
<path fill="none" stroke="black" d="M148.58,-143.7C148.58,-136.41 148.58,-127.73 148.58,-119.54"/>
<polygon fill="black" stroke="black" points="152.08,-119.62 148.58,-109.62 145.08,-119.62 152.08,-119.62"/>
</g>
<!-- PS -->
<g id="node6" class="node">
<title>PS</title>
<ellipse fill="none" stroke="black" cx="237.58" cy="-162" rx="27" ry="18"/>
<text text-anchor="middle" x="237.58" y="-156.95" font-family="Times New Roman,serif" font-size="14.00">PS</text>
</g>
<!-- Maria -->
<g id="node7" class="node">
<title>Maria</title>
<ellipse fill="none" stroke="black" cx="315.58" cy="-162" rx="33.44" ry="18"/>
<text text-anchor="middle" x="315.58" y="-156.95" font-family="Times New Roman,serif" font-size="14.00">Maria</text>
</g>
<!-- Joana -->
<g id="node8" class="node">
<title>Joana</title>
<ellipse fill="none" stroke="black" cx="315.58" cy="-90" rx="31.9" ry="18"/>
<text text-anchor="middle" x="315.58" y="-84.95" font-family="Times New Roman,serif" font-size="14.00">Joana</text>
</g>
<!-- Maria&#45;&gt;Joana -->
<g id="edge5" class="edge">
<title>Maria&#45;&gt;Joana</title>
<path fill="none" stroke="black" d="M315.58,-143.7C315.58,-136.41 315.58,-127.73 315.58,-119.54"/>
<polygon fill="black" stroke="black" points="319.08,-119.62 315.58,-109.62 312.08,-119.62 319.08,-119.62"/>
</g>
</g>
</svg>
